<svg width="160" height="35" viewBox="0 0 160 35" fill="none" xmlns="http://www.w3.org/2000/svg">
<path d="M5.01367 1.40625V27H0.601562V1.40625H5.01367ZM20.3945 1.40625L10.0234 13.7285L4.11719 19.9863L3.34375 15.6094L7.5625 10.4062L15.0156 1.40625H20.3945ZM15.6484 27L7.22852 14.8711L10.2695 11.8652L20.8867 27H15.6484ZM26.8457 12.041V27H22.6094V7.98047H26.5996L26.8457 12.041ZM26.0898 16.7871L24.7188 16.7695C24.7305 15.4219 24.918 14.1855 25.2812 13.0605C25.6562 11.9355 26.1719 10.9688 26.8281 10.1602C27.4961 9.35156 28.293 8.73047 29.2188 8.29688C30.1445 7.85156 31.1758 7.62891 32.3125 7.62891C33.2266 7.62891 34.0527 7.75781 34.791 8.01562C35.541 8.26172 36.1797 8.66602 36.707 9.22852C37.2461 9.79102 37.6562 10.5234 37.9375 11.4258C38.2188 12.3164 38.3594 13.4121 38.3594 14.7129V27H34.1055V14.6953C34.1055 13.7812 33.9707 13.0605 33.7012 12.5332C33.4434 11.9941 33.0625 11.6133 32.5586 11.3906C32.0664 11.1562 31.4512 11.0391 30.7129 11.0391C29.9863 11.0391 29.3359 11.1914 28.7617 11.4961C28.1875 11.8008 27.7012 12.2168 27.3027 12.7441C26.916 13.2715 26.6172 13.8809 26.4062 14.5723C26.1953 15.2637 26.0898 16.002 26.0898 16.7871ZM53.4062 23.1855V14.1152C53.4062 13.4355 53.2832 12.8496 53.0371 12.3574C52.791 11.8652 52.416 11.4844 51.9121 11.2148C51.4199 10.9453 50.7988 10.8105 50.0488 10.8105C49.3574 10.8105 48.7598 10.9277 48.2559 11.1621C47.752 11.3965 47.3594 11.7129 47.0781 12.1113C46.7969 12.5098 46.6562 12.9609 46.6562 13.4648H42.4375C42.4375 12.7148 42.6191 11.9883 42.9824 11.2852C43.3457 10.582 43.873 9.95508 44.5645 9.4043C45.2559 8.85352 46.082 8.41992 47.043 8.10352C48.0039 7.78711 49.082 7.62891 50.2773 7.62891C51.707 7.62891 52.9727 7.86914 54.0742 8.34961C55.1875 8.83008 56.0605 9.55664 56.6934 10.5293C57.3379 11.4902 57.6602 12.6973 57.6602 14.1504V22.6055C57.6602 23.4727 57.7188 24.252 57.8359 24.9434C57.9648 25.623 58.1465 26.2148 58.3809 26.7188V27H54.0391C53.8398 26.543 53.6816 25.9629 53.5645 25.2598C53.459 24.5449 53.4062 23.8535 53.4062 23.1855ZM54.0215 15.4336L54.0566 18.0527H51.0156C50.2305 18.0527 49.5391 18.1289 48.9414 18.2812C48.3438 18.4219 47.8457 18.6328 47.4473 18.9141C47.0488 19.1953 46.75 19.5352 46.5508 19.9336C46.3516 20.332 46.252 20.7832 46.252 21.2871C46.252 21.791 46.3691 22.2539 46.6035 22.6758C46.8379 23.0859 47.1777 23.4082 47.623 23.6426C48.0801 23.877 48.6309 23.9941 49.2754 23.9941C50.1426 23.9941 50.8984 23.8184 51.543 23.4668C52.1992 23.1035 52.7148 22.6641 53.0898 22.1484C53.4648 21.6211 53.6641 21.123 53.6875 20.6543L55.0586 22.5352C54.918 23.0156 54.6777 23.5312 54.3379 24.082C53.998 24.6328 53.5527 25.1602 53.002 25.6641C52.4629 26.1562 51.8125 26.5605 51.0508 26.877C50.3008 27.1934 49.4336 27.3516 48.4492 27.3516C47.207 27.3516 46.0996 27.1055 45.127 26.6133C44.1543 26.1094 43.3926 25.4355 42.8418 24.5918C42.291 23.7363 42.0156 22.7695 42.0156 21.6914C42.0156 20.6836 42.2031 19.793 42.5781 19.0195C42.9648 18.2344 43.5273 17.5781 44.2656 17.0508C45.0156 16.5234 45.9297 16.125 47.0078 15.8555C48.0859 15.5742 49.3164 15.4336 50.6992 15.4336H54.0215ZM66.3438 11.6367V34.3125H62.1074V7.98047H66.0098L66.3438 11.6367ZM78.7363 17.3145V17.6836C78.7363 19.0664 78.5723 20.3496 78.2441 21.5332C77.9277 22.7051 77.4531 23.7305 76.8203 24.6094C76.1992 25.4766 75.4316 26.1504 74.5176 26.6309C73.6035 27.1113 72.5488 27.3516 71.3535 27.3516C70.1699 27.3516 69.1328 27.1348 68.2422 26.7012C67.3633 26.2559 66.6191 25.6289 66.0098 24.8203C65.4004 24.0117 64.9082 23.0625 64.5332 21.9727C64.1699 20.8711 63.9121 19.6641 63.7598 18.3516V16.9277C63.9121 15.5332 64.1699 14.2676 64.5332 13.1309C64.9082 11.9941 65.4004 11.0156 66.0098 10.1953C66.6191 9.375 67.3633 8.74219 68.2422 8.29688C69.1211 7.85156 70.1465 7.62891 71.3184 7.62891C72.5137 7.62891 73.5742 7.86328 74.5 8.33203C75.4258 8.78906 76.2051 9.44531 76.8379 10.3008C77.4707 11.1445 77.9453 12.1641 78.2617 13.3594C78.5781 14.543 78.7363 15.8613 78.7363 17.3145ZM74.5 17.6836V17.3145C74.5 16.4355 74.418 15.6211 74.2539 14.8711C74.0898 14.1094 73.832 13.4414 73.4805 12.8672C73.1289 12.293 72.6777 11.8477 72.127 11.5312C71.5879 11.2031 70.9375 11.0391 70.1758 11.0391C69.4258 11.0391 68.7812 11.168 68.2422 11.4258C67.7031 11.6719 67.252 12.0176 66.8887 12.4629C66.5254 12.9082 66.2441 13.4297 66.0449 14.0273C65.8457 14.6133 65.7051 15.252 65.623 15.9434V19.3535C65.7637 20.1973 66.0039 20.9707 66.3438 21.6738C66.6836 22.377 67.1641 22.9395 67.7852 23.3613C68.418 23.7715 69.2266 23.9766 70.2109 23.9766C70.9727 23.9766 71.623 23.8125 72.1621 23.4844C72.7012 23.1562 73.1406 22.7051 73.4805 22.1309C73.832 21.5449 74.0898 20.8711 74.2539 20.1094C74.418 19.3477 74.5 18.5391 74.5 17.6836Z" fill="white"/>
<path d="M96.2266 20.4082C96.2266 19.8809 96.1445 19.4121 95.9805 19.002C95.8281 18.5918 95.5527 18.2168 95.1543 17.877C94.7559 17.5371 94.1934 17.209 93.4668 16.8926C92.752 16.5645 91.8379 16.2305 90.7246 15.8906C89.5059 15.5156 88.3809 15.0996 87.3496 14.6426C86.3301 14.1738 85.4395 13.6348 84.6777 13.0254C83.916 12.4043 83.3242 11.6953 82.9023 10.8984C82.4805 10.0898 82.2695 9.1582 82.2695 8.10352C82.2695 7.06055 82.4863 6.11133 82.9199 5.25586C83.3652 4.40039 83.9922 3.66211 84.8008 3.04102C85.6211 2.4082 86.5879 1.92187 87.7012 1.58203C88.8145 1.23047 90.0449 1.05469 91.3926 1.05469C93.291 1.05469 94.9258 1.40625 96.2969 2.10938C97.6797 2.8125 98.7402 3.75586 99.4785 4.93945C100.229 6.12305 100.604 7.42969 100.604 8.85938H96.2266C96.2266 8.01562 96.0449 7.27148 95.6816 6.62695C95.3301 5.9707 94.791 5.45508 94.0645 5.08008C93.3496 4.70508 92.4414 4.51758 91.3398 4.51758C90.2969 4.51758 89.4297 4.67578 88.7383 4.99219C88.0469 5.30859 87.5312 5.73633 87.1914 6.27539C86.8516 6.81445 86.6816 7.42383 86.6816 8.10352C86.6816 8.58398 86.793 9.02344 87.0156 9.42188C87.2383 9.80859 87.5781 10.1719 88.0352 10.5117C88.4922 10.8398 89.0664 11.1504 89.7578 11.4434C90.4492 11.7363 91.2637 12.0176 92.2012 12.2871C93.6191 12.709 94.8555 13.1777 95.9102 13.6934C96.9648 14.1973 97.8438 14.7715 98.5469 15.416C99.25 16.0605 99.7773 16.793 100.129 17.6133C100.48 18.4219 100.656 19.3418 100.656 20.373C100.656 21.4512 100.439 22.4238 100.006 23.291C99.5723 24.1465 98.9512 24.8789 98.1426 25.4883C97.3457 26.0859 96.3848 26.5488 95.2598 26.877C94.1465 27.1934 92.9043 27.3516 91.5332 27.3516C90.3027 27.3516 89.0898 27.1875 87.8945 26.8594C86.7109 26.5312 85.6328 26.0332 84.6602 25.3652C83.6875 24.6855 82.9141 23.8418 82.3398 22.834C81.7656 21.8145 81.4785 20.625 81.4785 19.2656H85.8906C85.8906 20.0977 86.0312 20.8066 86.3125 21.3926C86.6055 21.9785 87.0098 22.459 87.5254 22.834C88.041 23.1973 88.6387 23.4668 89.3184 23.6426C90.0098 23.8184 90.748 23.9062 91.5332 23.9062C92.5645 23.9062 93.4258 23.7598 94.1172 23.4668C94.8203 23.1738 95.3477 22.7637 95.6992 22.2363C96.0508 21.709 96.2266 21.0996 96.2266 20.4082ZM114.859 23.1855V14.1152C114.859 13.4355 114.736 12.8496 114.49 12.3574C114.244 11.8652 113.869 11.4844 113.365 11.2148C112.873 10.9453 112.252 10.8105 111.502 10.8105C110.811 10.8105 110.213 10.9277 109.709 11.1621C109.205 11.3965 108.812 11.7129 108.531 12.1113C108.25 12.5098 108.109 12.9609 108.109 13.4648H103.891C103.891 12.7148 104.072 11.9883 104.436 11.2852C104.799 10.582 105.326 9.95508 106.018 9.4043C106.709 8.85352 107.535 8.41992 108.496 8.10352C109.457 7.78711 110.535 7.62891 111.73 7.62891C113.16 7.62891 114.426 7.86914 115.527 8.34961C116.641 8.83008 117.514 9.55664 118.146 10.5293C118.791 11.4902 119.113 12.6973 119.113 14.1504V22.6055C119.113 23.4727 119.172 24.252 119.289 24.9434C119.418 25.623 119.6 26.2148 119.834 26.7188V27H115.492C115.293 26.543 115.135 25.9629 115.018 25.2598C114.912 24.5449 114.859 23.8535 114.859 23.1855ZM115.475 15.4336L115.51 18.0527H112.469C111.684 18.0527 110.992 18.1289 110.395 18.2812C109.797 18.4219 109.299 18.6328 108.9 18.9141C108.502 19.1953 108.203 19.5352 108.004 19.9336C107.805 20.332 107.705 20.7832 107.705 21.2871C107.705 21.791 107.822 22.2539 108.057 22.6758C108.291 23.0859 108.631 23.4082 109.076 23.6426C109.533 23.877 110.084 23.9941 110.729 23.9941C111.596 23.9941 112.352 23.8184 112.996 23.4668C113.652 23.1035 114.168 22.6641 114.543 22.1484C114.918 21.6211 115.117 21.123 115.141 20.6543L116.512 22.5352C116.371 23.0156 116.131 23.5312 115.791 24.082C115.451 24.6328 115.006 25.1602 114.455 25.6641C113.916 26.1562 113.266 26.5605 112.504 26.877C111.754 27.1934 110.887 27.3516 109.902 27.3516C108.66 27.3516 107.553 27.1055 106.58 26.6133C105.607 26.1094 104.846 25.4355 104.295 24.5918C103.744 23.7363 103.469 22.7695 103.469 21.6914C103.469 20.6836 103.656 19.793 104.031 19.0195C104.418 18.2344 104.98 17.5781 105.719 17.0508C106.469 16.5234 107.383 16.125 108.461 15.8555C109.539 15.5742 110.77 15.4336 112.152 15.4336H115.475ZM131.312 23.9766C132.004 23.9766 132.625 23.8418 133.176 23.5723C133.738 23.291 134.189 22.9043 134.529 22.4121C134.881 21.9199 135.074 21.3516 135.109 20.707H139.1C139.076 21.9375 138.713 23.0566 138.01 24.0645C137.307 25.0723 136.375 25.875 135.215 26.4727C134.055 27.0586 132.771 27.3516 131.365 27.3516C129.912 27.3516 128.646 27.1055 127.568 26.6133C126.49 26.1094 125.594 25.418 124.879 24.5391C124.164 23.6602 123.625 22.6465 123.262 21.498C122.91 20.3496 122.734 19.1191 122.734 17.8066V17.1914C122.734 15.8789 122.91 14.6484 123.262 13.5C123.625 12.3398 124.164 11.3203 124.879 10.4414C125.594 9.5625 126.49 8.87695 127.568 8.38477C128.646 7.88086 129.906 7.62891 131.348 7.62891C132.871 7.62891 134.207 7.93359 135.355 8.54297C136.504 9.14062 137.406 9.97852 138.062 11.0566C138.73 12.123 139.076 13.3652 139.1 14.7832H135.109C135.074 14.0801 134.898 13.4473 134.582 12.8848C134.277 12.3105 133.844 11.8535 133.281 11.5137C132.73 11.1738 132.068 11.0039 131.295 11.0039C130.439 11.0039 129.73 11.1797 129.168 11.5312C128.605 11.8711 128.166 12.3398 127.85 12.9375C127.533 13.5234 127.305 14.1855 127.164 14.9238C127.035 15.6504 126.971 16.4062 126.971 17.1914V17.8066C126.971 18.5918 127.035 19.3535 127.164 20.0918C127.293 20.8301 127.516 21.4922 127.832 22.0781C128.16 22.6523 128.605 23.1152 129.168 23.4668C129.73 23.8066 130.445 23.9766 131.312 23.9766ZM146.623 0V27H142.369V0H146.623ZM158.436 7.98047L150.156 17.1562L145.621 21.7969L144.514 18.2109L147.941 13.9746L153.32 7.98047H158.436ZM154.234 27L148.064 18.0703L150.736 15.0996L159.139 27H154.234Z" fill="#58F5FF"/>
</svg>
